SPORT: Jour De Rugby
On: TV5MONDE 
Date: Sunday 17th February 2013
Time: 11:05 to 11:45 

R┬ésum┬é des matchs et commentaires apros chaque journ┬ée du Top 14. Review of the French Top 14 League. In French with no subtitles.


General
Complete name: 2013.02.17.Jour.De.Rugby.pdtv.x264.mkv
Format : Matroska
Format version : Version 4 / Version 2
File size: 316 MiB
Duration : 36mn 37s
Overall bit rate : 1 206 Kbps
Writing application: mkvmerge v6.0.0 ('Coming Up For Air') built on Jan 20 2013 09:52:00
Writing library: libebml v1.3.0 + libmatroska v1.4.0

Video
ID : 1
Format : AVC
Format/Info: Advanced Video Codec
Format profile : High@L3.1
Format settings, CABAC : Yes
Format settings, ReFrames: 5 frames
Codec ID : V_MPEG4/ISO/AVC
Duration : 36mn 37s
Bit rate : 1 054 Kbps
Width: 720 pixels
Height : 416 pixels
Display aspect ratio : 1.731
Frame rate mode: Constant
Frame rate : 25.000 fps
Color space: YUV
Chroma subsampling : 4:2:0
Bit depth: 8 bits
Scan type: Progressive
Bits/(Pixel*Frame) : 0.141
Stream size: 276 MiB (87%)
Writing library: x264 core 129 r2245 bc13772

Audio
ID : 2
Format : AC-3
Format/Info: Audio Coding 3
Mode extension : CM (complete main)
Format settings, Endianness: Big
Codec ID : A_AC3
Duration : 36mn 37s
Bit rate mode: Constant
Bit rate : 128 Kbps
Channel(s) : 2 channels
Channel positions: Front: L R
Sampling rate: 48.0 KHz
Bit depth: 16 bits
Compression mode : Lossy
Stream size: 33.5 MiB (11%)
Language : French